<svg width="40" height="40" viewBox="0 0 40 40" fill="none" xmlns="http://www.w3.org/2000/svg">
<g id="Group">
<path id="vector" d="M0.251343 0.251402H39.7485V39.7485H0.251343V0.251402Z" fill="black"/>
<path id="vector_2" d="M4 32.3429H18.8114V34.8114H4V32.3429Z" fill="white"/>
<path id="vector_3" d="M3.81702 5.37143H10.4913C14.4227 5.37143 16.7999 7.65714 16.7999 11.04V11.1314C16.7999 14.9714 13.8742 16.8914 10.1256 16.8914H7.38273V21.8286H3.81702V5.37143ZM10.3084 13.6C12.137 13.6 13.1427 12.5029 13.1427 11.1314V11.04C13.1427 9.39429 12.0456 8.57143 10.217 8.57143H7.47416V13.6H10.3084Z" fill="white"/>
<path id="vector_4" d="M17.7142 19.4514L19.8171 16.8914C21.2799 18.0799 22.8342 18.9028 24.7542 18.9028C26.2171 18.9028 27.1314 18.3542 27.1314 17.3485V17.2571C27.1314 16.3428 26.5828 15.8856 23.8399 15.1542C20.5485 14.3314 18.3542 13.4171 18.3542 10.1256V10.0342C18.3542 7.01707 20.7314 5.09707 24.1142 5.09707C26.4914 5.09707 28.5942 5.82849 30.2399 7.19992L28.3199 9.94278C26.8571 8.93707 25.3942 8.29707 24.0228 8.29707C22.6514 8.29707 21.9199 8.93707 21.9199 9.75992V9.85135C21.9199 10.9485 22.6514 11.3142 25.4857 12.0456C28.7771 12.9599 30.6971 14.1485 30.6971 16.9828V17.0742C30.6971 20.3656 28.2285 22.1942 24.6628 22.1942C22.1942 22.1028 19.7257 21.1885 17.7142 19.4514Z" fill="white"/>
</g>
</svg>
